<svg xmlns="http://www.w3.org/2000/svg" viewBox="0 0 512 512" role="img" aria-labelledby="title desc">
  <title id="title">Patch Parser icon</title>
  <desc id="desc">Yellow rounded-square icon with a document and schema glyph.</desc>
  <rect x="24" y="24" width="464" height="464" rx="108" fill="#ffeb3b"/>
  <g fill="#111111">
    <path transform="translate(112 398) scale(0.3 -0.3)" d="M240-80q-33 0-56.5-23.5T160-160v-640q0-33 23.5-56.5T240-880h320l240 240v480q0 33-23.5 56.5T720-80H240Zm280-520v-200H240v640h480v-440H520ZM240-800v200-200 640-640Z"/>
    <path transform="translate(184 310) scale(0.14 -0.14)" d="M160-40v-240h100v-80H160v-240h100v-80H160v-240h280v240H340v80h100v80h120v-80h280v240H560v-80H440v80H340v80h100v240H160Zm80-80h120v-80H240v80Zm0-320h120v-80H240v80Zm400 0h120v-80H640v80ZM240-760h120v-80H240v80Zm60-40Zm0 320Zm400 0ZM300-160Z"/>
  </g>
</svg>
